<?xml version="1.0" encoding="utf-8"?>
<svg class="text-black dark:text-white block w-auto h-6" width="600" height="400" viewBox="0 0 600 400" fill="none" xmlns="http://www.w3.org/2000/svg">
  <defs/>
  <path d="M 334.8 393.334 L 549.4 393.334 C 556.248 393.334 562.802 390.929 568.733 387.534 C 574.665 384.139 580.778 379.88 584.2 374 C 587.622 368.121 590.004 361.453 590 354.665 C 589.996 347.877 587.628 341.211 584.2 335.336 L 439.2 85.934 C 435.778 80.056 431.596 75.794 425.667 72.4 C 419.737 69.007 411.248 66.6 404.4 66.6 C 397.552 66.6 390.996 69.007 385.067 72.4 C 379.137 75.794 374.955 80.056 371.533 85.934 L 334.8 149.734 L 261.333 25.996 C 257.907 20.119 253.731 13.926 247.8 10.534 C 241.869 7.141 235.315 6.667 228.467 6.667 C 221.619 6.667 215.065 7.141 209.133 10.534 C 203.202 13.926 197.092 20.119 193.667 25.996 L 13.867 335.336 C 10.439 341.211 10.003 347.877 10 354.665 C 9.997 361.453 10.444 368.121 13.867 374 C 17.289 379.878 23.403 384.139 29.333 387.534 C 35.264 390.929 41.818 393.334 48.667 393.334 L 184 393.334 C 237.625 393.334 276.655 369.279 303.867 323.734 L 369.6 209.667 L 404.4 149.734 L 510.733 331.467 L 369.6 331.467 L 334.8 393.334 Z M 182.067 331.467 L 87.333 331.467 L 228.467 87.867 L 300 209.667 L 252.616 292.269 C 234.545 321.82 213.943 331.467 182.067 331.467 Z" fill="#00DC82"/>
</svg>