
<svg xmlns="http://www.w3.org/2000/svg" xml:space="preserve" width="512px" height="512px" version="1.1" style="shape-rendering:geometricPrecision; text-rendering:geometricPrecision; image-rendering:optimizeQuality; fill-rule:evenodd; clip-rule:evenodd"
viewBox="0 0 512 512"
 xmlns:xlink="http://www.w3.org/1999/xlink">
 <g>
  <path class="fil0" d="M256 413.922l-120.169 91.181c-5.951,4.838 -12.453,7.131 -19.487,6.87 -7.034,-0.261 -13.265,-2.284 -18.673,-6.067 -5.419,-3.763 -9.608,-8.872 -12.569,-15.335 -2.97,-6.454 -3.106,-13.449 -0.425,-20.977l46.287 -149.273 -117.741 -83.103c-6.492,-4.305 -10.556,-9.946 -12.172,-16.941 -1.625,-6.996 -1.354,-13.449 0.803,-19.371 2.168,-5.911 5.961,-11.165 11.369,-15.742 5.418,-4.586 11.911,-6.869 19.487,-6.85l145.344 0 47.091 -154.914c2.709,-7.527 6.908,-13.313 12.597,-17.367 5.699,-4.044 11.785,-6.057 18.258,-6.028 6.492,0 12.588,2.022 18.287,6.067 5.689,4.044 9.878,9.82 12.568,17.328l47.091 154.914 145.335 0c7.585,0 14.078,2.293 19.496,6.879 5.408,4.587 9.201,9.821 11.369,15.713 2.157,5.922 2.428,12.375 0.803,19.371 -1.616,6.995 -5.68,12.636 -12.172,16.941l-117.731 83.103 46.277 149.273c2.71,7.528 2.574,14.523 -0.396,20.977 -2.961,6.463 -7.16,11.572 -12.598,15.335 -5.408,3.764 -11.639,5.786 -18.673,6.067 -7.034,0.28 -13.536,-2.013 -19.487,-6.87l-120.169 -91.181z"/>
 </g>
</svg>
