<svg width="34" height="34" viewBox="0 0 34 34" fill="none" xmlns="http://www.w3.org/2000/svg">
<path d="M23.364 8.51472C23.9497 7.92893 24.8995 7.92893 25.4853 8.51472C26.0711 9.1005 26.0711 10.0502 25.4853 10.636L10.636 25.4853C10.0503 26.0711 9.10051 26.0711 8.51472 25.4853C7.92893 24.8995 7.92893 23.9497 8.51472 23.364L23.364 8.51472Z" fill="#D9D9D9"/>
<path d="M25.4853 23.364C26.0711 23.9497 26.0711 24.8995 25.4853 25.4853C24.8995 26.0711 23.9497 26.0711 23.364 25.4853L8.51472 10.636C7.92893 10.0502 7.92893 9.1005 8.51472 8.51471C9.10051 7.92893 10.0503 7.92893 10.636 8.51471L25.4853 23.364Z" fill="#D9D9D9"/>
</svg>
